<svg viewBox="0 0 32 32" fill="none" xmlns="http://www.w3.org/2000/svg">
<path fill-rule="evenodd" clip-rule="evenodd" d="M3.124 3.12399C7.29 -1.04101 24.71 -1.04101 28.876 3.12399C30.959 5.20699 32 10.603 32 16C32 21.397 30.959 26.793 28.876 28.876C26.793 30.959 21.397 32 16 32C10.603 32 5.207 30.959 3.124 28.876C1.041 26.793 0 21.396 0 16C0 10.604 1.041 5.20699 3.124 3.12399ZM14.0009 9.34966L14 9.34999C12.8077 9.80103 12.2314 10.5422 12.0578 10.7937C12.0189 10.3706 12 9.93318 12 9.49999C12 8.74013 12.0583 7.96722 12.1804 7.28158C12.2973 6.62449 12.4911 5.93848 12.8268 5.43459C13.5341 4.37276 14.8985 3.99999 16 3.99999C17.1015 3.99999 18.4659 4.37276 19.1732 5.43459C19.5089 5.93848 19.7027 6.62449 19.8196 7.28158C19.9417 7.96722 20 8.74013 20 9.49999C20 10.2599 19.9417 11.0328 19.8196 11.7184C19.7027 12.3755 19.5089 13.0615 19.1732 13.5654C18.4659 14.6272 17.1015 15 16 15C15.7341 15 15.4528 14.9783 15.1692 14.9304C15.119 14.9212 15.0692 14.9111 15.02 14.9C15.05 14.15 15.14 13.47 15.31 13.14C15.46 13.05 15.73 13 16 13C16.8005 13 17.3381 12.7128 17.5088 12.4566C17.6121 12.3015 17.7478 11.945 17.8506 11.3678C17.9483 10.8192 18 10.1661 18 9.49999C18 8.83385 17.9483 8.18077 17.8506 7.63216C17.7478 7.055 17.6121 6.69851 17.5088 6.5434C17.3381 6.28723 16.8005 5.99999 16 5.99999C15.1995 5.99999 14.6619 6.28723 14.4912 6.5434C14.3879 6.69851 14.2522 7.055 14.1494 7.63216C14.0591 8.13943 14.0081 8.73602 14.0009 9.34966ZM18 15.65L17.9991 15.6503C17.9919 16.264 17.9409 16.8606 17.8506 17.3678C17.7478 17.945 17.6121 18.3015 17.5088 18.4566C17.3381 18.7128 16.8005 19 16 19C15.1995 19 14.6619 18.7128 14.4912 18.4566C14.3879 18.3015 14.2522 17.945 14.1494 17.3678C14.0517 16.8192 14 16.1661 14 15.5C14 14.8339 14.0517 14.1808 14.1494 13.6322C14.2522 13.055 14.3879 12.6985 14.4912 12.5434C14.6619 12.2872 15.1995 12 16 12C16.27 12 16.54 11.95 16.69 11.86C16.86 11.53 16.95 10.85 16.98 10.1C16.9308 10.0889 16.881 10.0788 16.8308 10.0696C16.5472 10.0217 16.2659 9.99999 16 9.99999C14.8985 9.99999 13.5341 10.3728 12.8268 11.4346C12.4911 11.9385 12.2973 12.6245 12.1804 13.2816C12.0583 13.9672 12 14.7401 12 15.5C12 16.2599 12.0583 17.0328 12.1804 17.7184C12.2973 18.3755 12.4911 19.0615 12.8268 19.5654C13.5341 20.6272 14.8985 21 16 21C17.1015 21 18.4659 20.6272 19.1732 19.5654C19.5089 19.0615 19.7027 18.3755 19.8196 17.7184C19.9417 17.0328 20 16.2599 20 15.5C20 15.0668 19.9811 14.6294 19.9422 14.2063C19.7686 14.4578 19.1923 15.199 18 15.65ZM10.0187 20.3616C10.0995 20.0024 11.0194 19.4201 11.3787 19.5008C11.5583 19.5411 11.7936 19.7913 11.9741 20.0763C11.9978 20.1137 12.0205 20.1517 12.042 20.19C12.8047 21.2763 14.2437 22 16 22C17.758 22 19.1982 21.2748 19.9602 20.1867C19.9811 20.1499 20.0031 20.1132 20.0259 20.0771C20.2063 19.7922 20.4417 19.542 20.6213 19.5016C20.9805 19.4209 21.9005 20.0033 21.9812 20.3625C22.0216 20.5421 21.8962 20.8619 21.7158 21.1469C21.6987 21.1739 21.6811 21.2005 21.6631 21.2268L21.6691 21.2307C20.6516 22.7569 18.9304 23.6973 17 23.9383V26H18.5V26.0002C18.8373 26.0002 19.1746 26.0653 19.3048 26.1955C19.4349 26.3257 19.5 26.6629 19.5 27.0002C19.5 27.3375 19.4349 27.6748 19.3048 27.805C19.1746 27.9352 18.8373 28.0002 18.5 28.0002L18.4649 28H13.5351L13.5 28.0002C13.1627 28.0002 12.8254 27.9352 12.6952 27.805C12.5651 27.6748 12.5 27.3375 12.5 27.0002C12.5 26.663 12.5651 26.3257 12.6952 26.1955C12.8254 26.0653 13.1627 26.0002 13.5 26.0002V26H15V23.9383C13.0696 23.6973 11.3484 22.7569 10.3309 21.2307L10.3372 21.2265C10.3191 21.2001 10.3014 21.1732 10.2842 21.146C10.1038 20.8611 9.97836 20.5413 10.0187 20.3616Z" fill="black"/>
</svg>
