<svg viewBox="0 0 146 32" fill="none" xmlns="http://www.w3.org/2000/svg">
<path d="M28.876 3.12399C24.71 -1.04101 7.29 -1.04101 3.124 3.12399C1.041 5.20699 0 10.604 0 16C0 21.396 1.041 26.793 3.124 28.876C5.207 30.959 10.603 32 16 32C21.397 32 26.793 30.959 28.876 28.876C30.959 26.793 32 21.397 32 16C32 10.603 30.959 5.20699 28.876 3.12399Z" fill="#335FFF"/>
<path d="M16 23V27" stroke="white" stroke-width="2"/>
<path d="M18.5 27H13.5" stroke="white" stroke-width="2"/>
<path d="M20.837 20.676C19.867 22.131 18.059 23 16 23C13.941 23 12.133 22.131 11.163 20.676" stroke="white" stroke-width="2"/>
<path d="M14.3047 26.1955C14.0444 25.9352 12.9556 25.9352 12.6953 26.1955C12.5651 26.3257 12.5 26.663 12.5 27.0002C12.5 27.3375 12.5651 27.6748 12.6953 27.805C12.8254 27.9352 13.1627 28.0002 13.5 28.0002C13.8373 28.0002 14.1746 27.9352 14.3047 27.805C14.4349 27.6748 14.5 27.3375 14.5 27.0002C14.5 26.6629 14.4349 26.3257 14.3047 26.1955Z" fill="white"/>
<path d="M19.3047 26.1955C19.0444 25.9352 17.9556 25.9352 17.6953 26.1955C17.5651 26.3257 17.5 26.663 17.5 27.0002C17.5 27.3375 17.5651 27.6748 17.6953 27.805C17.8254 27.9352 18.1627 28.0002 18.5 28.0002C18.8373 28.0002 19.1746 27.9352 19.3047 27.805C19.4349 27.6748 19.5 27.3375 19.5 27.0002C19.5 26.6629 19.4349 26.3257 19.3047 26.1955Z" fill="white"/>
<path d="M11.3787 19.5008C11.0194 19.4201 10.0995 20.0024 10.0187 20.3616C9.97836 20.5413 10.1038 20.8611 10.2842 21.146C10.4646 21.431 10.7 21.6812 10.8796 21.7216C11.0592 21.7619 11.379 21.6365 11.664 21.4561C11.949 21.2757 12.1992 21.0403 12.2395 20.8607C12.2799 20.6811 12.1545 20.3613 11.9741 20.0763C11.7936 19.7913 11.5583 19.5411 11.3787 19.5008Z" fill="white"/>
<path d="M21.9812 20.3625C21.9005 20.0033 20.9805 19.4209 20.6213 19.5016C20.4417 19.542 20.2063 19.7922 20.0259 20.0771C19.8455 20.3621 19.7201 20.6819 19.7604 20.8615C19.8008 21.0412 20.051 21.2765 20.336 21.4569C20.621 21.6374 20.9407 21.7628 21.1204 21.7224C21.3 21.682 21.5354 21.4319 21.7158 21.1469C21.8962 20.8619 22.0216 20.5421 21.9812 20.3625Z" fill="white"/>
<mask id="mask0_1_24" style="mask-type:luminance" maskUnits="userSpaceOnUse" x="12" y="10" width="8" height="11">
<path d="M18 15.65C17.053 16.005 16.1 16 16 16V12C16.27 12 16.54 11.95 16.69 11.86C16.86 11.53 16.95 10.85 16.98 10.1C16.67 10.03 16.34 10 16 10H12V21H20V14.12C19.98 14.14 19.438 15.106 18 15.65Z" fill="white"/>
</mask>
<g mask="url(#mask0_1_24)">
<path d="M18.341 19.011C17.902 19.67 16.951 20 16 20C15.049 20 14.098 19.67 13.659 19.011C13.22 18.352 13 16.926 13 15.5C13 14.074 13.22 12.648 13.659 11.989C14.098 11.33 15.049 11 16 11C16.951 11 17.902 11.33 18.341 11.989C18.78 12.648 19 14.074 19 15.5C19 16.926 18.78 18.352 18.341 19.011Z" stroke="white" stroke-width="2"/>
</g>
<mask id="mask1_1_24" style="mask-type:luminance" maskUnits="userSpaceOnUse" x="12" y="4" width="8" height="11">
<path d="M14 9.35C14.947 8.995 15.9 9 16 9V13C15.73 13 15.46 13.05 15.31 13.14C15.14 13.47 15.05 14.15 15.02 14.9C15.33 14.97 15.66 15 16 15H20V4L12 4L12 10.88C12.02 10.86 12.562 9.894 14 9.35Z" fill="white"/>
</mask>
<g mask="url(#mask1_1_24)">
<path d="M13.659 5.989C14.098 5.33 15.049 5 16 5C16.951 5 17.902 5.33 18.341 5.989C18.78 6.648 19 8.074 19 9.5C19 10.926 18.78 12.352 18.341 13.011C17.902 13.67 16.951 14 16 14C15.049 14 14.098 13.67 13.659 13.011C13.22 12.352 13 10.926 13 9.5C13 8.074 13.22 6.648 13.659 5.989Z" stroke="white" stroke-width="2"/>
</g>
<path d="M41.9844 27V4.45312H50.6719C55.2344 4.45312 58.3438 7.46875 58.3438 11.9844V12.0156C58.3438 16.5156 55.2344 19.5469 50.6719 19.5469H46.0156V27H41.9844ZM49.6719 7.75H46.0156V16.2969H49.6719C52.5625 16.2969 54.25 14.7344 54.25 12.0312V12C54.25 9.29688 52.5625 7.75 49.6719 7.75ZM67.6094 27.3281C62.7344 27.3281 59.5938 24.0781 59.5938 18.7188V18.6875C59.5938 13.375 62.7812 10.0938 67.5938 10.0938C72.4219 10.0938 75.625 13.3438 75.625 18.6875V18.7188C75.625 24.0938 72.4688 27.3281 67.6094 27.3281ZM67.625 24.1875C70.0781 24.1875 71.6562 22.1875 71.6562 18.7188V18.6875C71.6562 15.2344 70.0625 13.25 67.5938 13.25C65.1719 13.25 63.5625 15.25 63.5625 18.6875V18.7188C63.5625 22.2031 65.1406 24.1875 67.625 24.1875ZM84.2812 27.3281C80.0938 27.3281 77.4375 24.0469 77.4375 18.7188V18.7031C77.4375 13.3594 80.1094 10.0938 84.2656 10.0938C86.6094 10.0938 88.5 11.2969 89.4375 13.2812H89.5312V4.45312H93.4219V27H89.5312V24.1875H89.4375C88.5 26.1406 86.6719 27.3281 84.2812 27.3281ZM85.4531 24.0469C87.8594 24.0469 89.5312 21.9688 89.5312 18.7188V18.7031C89.5312 15.4688 87.8438 13.375 85.4531 13.375C82.9688 13.375 81.4062 15.4062 81.4062 18.7031V18.7188C81.4062 22.0156 82.9531 24.0469 85.4531 24.0469ZM101.812 27.25C98.5625 27.25 96.7969 25.6719 96.7969 22.4375V4.40625H100.688V22.3438C100.688 23.8125 101.391 24.2656 102.594 24.2656C102.906 24.2656 103.203 24.2344 103.422 24.2188V27.1406C103.078 27.1875 102.375 27.25 101.812 27.25ZM107.5 8.0625C106.281 8.0625 105.328 7.09375 105.328 5.9375C105.328 4.75 106.281 3.79688 107.5 3.79688C108.719 3.79688 109.656 4.75 109.656 5.9375C109.656 7.09375 108.719 8.0625 107.5 8.0625ZM105.547 27V10.4375H109.438V27H105.547ZM112.75 27V10.4375H116.641V13.0312H116.719C117.578 11.25 119.266 10.0938 121.781 10.0938C125.422 10.0938 127.5 12.4375 127.5 16.2812V27H123.609V17.0625C123.609 14.7031 122.516 13.375 120.297 13.375C118.062 13.375 116.641 15 116.641 17.3906V27H112.75ZM130.797 27V4.45312H134.688V17.3125H134.766L140.953 10.4375H145.453L138.891 17.5625L145.719 27H141.234L136 19.875L134.688 21.25V27H130.797Z" fill="white"/>
</svg>
